<svg width="26px" height="26px" viewBox="0 -4 26 26" xmlns="http://www.w3.org/2000/svg">
  <g id="Group_714" data-name="Group 714" transform="translate(-150 -54)">
    <path id="Path_1499" data-name="Path 1499" d="M175,64H155V62h20a1,1,0,0,1,0,2Zm0-8H155V54h20a1,1,0,0,1,0,2ZM150,71a.945.945,0,0,1,1-1h2v2h-2A.945.945,0,0,1,150,71Zm0-8a.945.945,0,0,1,1-1h2v2h-2A.945.945,0,0,1,150,63Zm0-8a.945.945,0,0,1,1-1h2v2h-2A.945.945,0,0,1,150,55Zm26,16a.945.945,0,0,1-1,1H155V70h20A.945.945,0,0,1,176,71Z" fill="#444"/>
  </g>
</svg>
