<svg xmlns="http://www.w3.org/2000/svg" width="800" height="800" viewBox="0 0 54.18 54.18"><path d="m39.484 37.379.06-.072c.288-.333.571-.675.839-1.021l.064-.082.1-.134a22.528 22.528 0 1 0-18.012 9 22.592 22.592 0 0 0 13.775-4.708c.329-.255.663-.529.995-.815l.054-.048.069-.06a20.034 20.034 0 0 0 1.995-1.991Zm-4.523-2.414a17.577 17.577 0 1 1 5.147-12.426 17.457 17.457 0 0 1-5.147 12.421ZM54.14 48.766l-.662-.658-7.292-7.292a.162.162 0 0 0-.226 0l-.245.243-3.443 3.444-1.455 1.456a.168.168 0 0 0-.046.117.163.163 0 0 0 .046.107l7.95 7.952a.155.155 0 0 0 .116.043.148.148 0 0 0 .105-.042l2.576-2.572 2.571-2.575a.161.161 0 0 0 0-.223ZM43.086 40.4l-1.683-1.682-.214.248-.025.029-.047.054c-.355.4-.679.743-1 1.064s-.647.628-1.057.993l-.01.011-.041.034-.286.247 1.682 1.685 1.341-1.343Z"/></svg>