<svg xmlns="http://www.w3.org/2000/svg" xml:space="preserve" style="enable-background:new 0 0 512.001 512.001" viewBox="0 0 512.001 512.001"><path fill="#42404f" d="M429.531 345.86c-25.841 0-49.488 11.769-64.918 31.551L162.241 276.925A82.299 82.299 0 0 0 164.939 256c0-7.229-.943-14.24-2.698-20.926l202.457-100.526c15.112 19.216 38.547 31.592 64.833 31.592 45.473 0 82.469-36.995 82.469-82.469S475.005 1.203 429.531 1.203s-82.469 36.995-82.469 82.469c0 7.229.942 14.24 2.697 20.925L147.302 205.124c-15.112-19.216-38.547-31.592-64.833-31.592C36.995 173.532 0 210.527 0 256.001s36.995 82.469 82.469 82.469c26.287 0 49.722-12.378 64.834-31.592l202.433 100.514c-1.776 6.776-2.672 13.774-2.672 20.937 0 45.474 36.995 82.469 82.469 82.469s82.469-36.995 82.469-82.469c-.001-45.474-36.997-82.469-82.471-82.469zm0-311.185c27.018 0 48.998 21.98 48.998 48.998 0 27.018-21.98 48.998-48.998 48.998-27.018 0-48.998-21.98-48.998-48.998 0-27.018 21.98-48.998 48.998-48.998zM82.469 304.999c-27.018 0-48.998-21.981-48.998-48.998s21.98-48.998 48.998-48.998c27.019 0 48.999 21.98 48.999 48.998 0 27.017-21.98 48.998-48.999 48.998zm347.062 172.327c-27.018 0-48.998-21.98-48.998-48.998 0-26.683 21.414-48.998 48.998-48.998 27.018 0 48.998 21.98 48.998 48.998s-21.98 48.998-48.998 48.998z"/></svg>